<svg width="400" height="100" xmlns="http://www.w3.org/2000/svg">
    <style>.c{fill:#D9D9D9}.l{stroke:#6D6D6D;stroke-width:1}</style>
    <g class="l"><line x1="30" y1="50" x2="170" y2="50"/><line x1="30" y1="70" x2="330" y2="70"/><line x1="31" y1="30" x2="31" y2="90"/><line x1="172" y1="20" x2="172" y2="50"/><line x1="173" y1="20" x2="330" y2="20"/><line x1="173" y1="62" x2="330" y2="62"/><line x1="330" y1="20" x2="330" y2="70"/></g>
    <g class="c"><rect x="29" y="49" width="3" height="3"/><rect x="29" y="68" width="3" height="3"/><rect x="170" y="49" width="3" height="3"/><rect x="29" y="27" width="3" height="3"/><rect x="30" y="90" width="3" height="3"/><rect x="170" y="18" width="3" height="3"/><rect x="328" y="18" width="3" height="3"/><rect x="170" y="60" width="3" height="3"/><rect x="328" y="60" width="3" height="3"/><rect x="170" y="69" width="3" height="3"/><rect x="328" y="69" width="3" height="3"/></g>
    <g fill="none" stroke-width="1"><circle cx="98" cy="50" r="7" stroke="#FF5336" class="bouncing-circle"/><circle cx="150" cy="50" r="7" stroke="#488DA3" class="bouncing-circle"/></g>
    <g><circle cx="50" cy="50" r="3" fill="#ED6A5A" class="bouncing-circle"/><circle cx="74" cy="50" r="3" fill="#C0BC9C" class="bouncing-circle2"/><circle cx="98" cy="50" r="3" fill="#488DA3" class="bouncing-circle"/><circle cx="125" cy="50" r="3" fill="#488DA3" class="bouncing-circle2"/><circle cx="150" cy="50" r="3" fill="#C0BC9C" class="bouncing-circle"/></g>
    <text id="time-text" x="180" y="50" fill="#66A5B6" font-size="28" font-family="Orbitron">22:00:00</text>
</svg>