<svg width="304" height="103" viewBox="0 0 304 103" fill="none" xmlns="http://www.w3.org/2000/svg">
<rect x="2" y="93.207" width="131" height="1" fill="#6D6D6D"/>
<rect x="131" y="93" width="49" height="1" transform="rotate(-90 131 93)" fill="#6D6D6D"/>
<rect x="1" y="99.207" width="131" height="1" fill="#6D6D6D"/>
<rect x="131" y="93" width="170" height="1" fill="#6D6D6D"/>
<rect x="131" y="99.207" width="169" height="1" fill="#6D6D6D"/>
<rect x="129.671" y="91.8789" width="3.24275" height="3.24275" fill="#D9D9D9"/>
<rect x="130" y="41" width="3" height="3" fill="#D9D9D9"/>
<rect x="0.671387" y="91.8789" width="3.24275" height="3.24275" fill="#D9D9D9"/>
<rect x="0.671387" y="97.8789" width="3.24275" height="3.24275" fill="#D9D9D9"/>
<rect x="129.671" y="98.8789" width="3.24275" height="3.24275" fill="#D9D9D9"/>
<rect x="301" y="99" width="56" height="1" transform="rotate(-90 301 99)" fill="#6D6D6D"/>
<rect x="300" y="98" width="3.24275" height="3.24275" fill="#D9D9D9"/>
<rect x="300" y="41" width="3" height="3" fill="#D9D9D9"/>
<rect x="300" y="92" width="3" height="3" fill="#D9D9D9"/>
<rect x="130" y="2" width="170" height="1" fill="#6D6D6D"/>
<rect x="129" y="1" width="3" height="3" fill="#D9D9D9"/>
<rect x="299" y="0.792969" width="3" height="3" fill="#D9D9D9"/>
</svg>
