<svg width="303" height="90" viewBox="0 0 303 90" fill="none" xmlns="http://www.w3.org/2000/svg">
<rect x="120" y="1" width="181" height="1" fill="#6D6D6D"/>
<rect y="35.207" width="120" height="1" fill="#6D6D6D"/>
<rect y="54.207" width="299" height="1" fill="#6D6D6D"/>
<rect x="131" y="48.207" width="169" height="1" fill="#6D6D6D"/>
<rect x="1" y="21.207" width="1" height="66" fill="#6D6D6D"/>
<rect x="119" y="2.20703" width="1" height="33" fill="#6D6D6D"/>
<rect y="19.207" width="3" height="3" fill="#D9D9D9"/>
<rect x="128" y="53.207" width="3" height="3" fill="#D9D9D9"/>
<rect y="34.207" width="3" height="3" fill="#D9D9D9"/>
<rect y="53.207" width="3" height="3" fill="#D9D9D9"/>
<rect y="86.207" width="3" height="3" fill="#D9D9D9"/>
<rect x="118" y="34.207" width="3" height="3" fill="#D9D9D9"/>
<rect x="118" y="0.207031" width="3" height="3" fill="#D9D9D9"/>
<rect x="128" y="47.207" width="3" height="3" fill="#D9D9D9"/>
<circle cx="106.5" cy="35.707" r="5" stroke="#488DA3"/>
<circle cx="61.5" cy="35.707" r="5" stroke="#FF5336"/>
<circle cx="15" cy="36.207" r="2.5" fill="#FF5336" stroke="#FF5336"/>
<circle cx="37" cy="36.207" r="3" fill="#C0BC9C"/>
<circle cx="85" cy="36.207" r="3" fill="#488DA3"/>
<circle cx="106.5" cy="35.707" r="2.5" fill="#C0BC9C"/>
<circle cx="61.5" cy="35.707" r="2.5" fill="#488DA3"/>
<rect x="300" y="54" width="52" height="1" transform="rotate(-90 300 54)" fill="#6D6D6D"/>
<rect x="299" y="53" width="3.24275" height="3.24275" fill="#D9D9D9"/>
<rect x="299" width="3" height="3" fill="#D9D9D9"/>
<rect x="299" y="47" width="3" height="3" fill="#D9D9D9"/>
<path d="M130.71 33.207V25.107C130.71 24.427 130.87 23.817 131.19 23.277C131.51 22.717 131.94 22.277 132.48 21.957C133.04 21.637 133.66 21.477 134.34 21.477H148.89C149.21 21.477 149.48 21.367 149.7 21.147C149.94 20.907 150.06 20.627 150.06 20.307V15.237C150.06 14.917 149.94 14.647 149.7 14.427C149.48 14.187 149.21 14.067 148.89 14.067H134.34C134.02 14.067 133.74 14.187 133.5 14.427C133.28 14.647 133.17 14.917 133.17 15.237V16.077H130.71V15.237C130.71 14.557 130.87 13.947 131.19 13.407C131.51 12.847 131.94 12.407 132.48 12.087C133.04 11.747 133.66 11.577 134.34 11.577H148.89C149.55 11.577 150.15 11.747 150.69 12.087C151.25 12.407 151.69 12.847 152.01 13.407C152.35 13.947 152.52 14.557 152.52 15.237V20.307C152.52 20.967 152.35 21.577 152.01 22.137C151.69 22.677 151.25 23.117 150.69 23.457C150.15 23.777 149.55 23.937 148.89 23.937H134.34C134.02 23.937 133.74 24.057 133.5 24.297C133.28 24.517 133.17 24.787 133.17 25.107V29.577C133.17 29.897 133.28 30.177 133.5 30.417C133.74 30.637 134.02 30.747 134.34 30.747H152.52V33.207H130.71ZM155.612 33.207V25.107C155.612 24.427 155.772 23.817 156.092 23.277C156.412 22.717 156.842 22.277 157.382 21.957C157.942 21.637 158.562 21.477 159.242 21.477H173.792C174.112 21.477 174.382 21.367 174.602 21.147C174.842 20.907 174.962 20.627 174.962 20.307V15.237C174.962 14.917 174.842 14.647 174.602 14.427C174.382 14.187 174.112 14.067 173.792 14.067H159.242C158.922 14.067 158.642 14.187 158.402 14.427C158.182 14.647 158.072 14.917 158.072 15.237V16.077H155.612V15.237C155.612 14.557 155.772 13.947 156.092 13.407C156.412 12.847 156.842 12.407 157.382 12.087C157.942 11.747 158.562 11.577 159.242 11.577H173.792C174.452 11.577 175.052 11.747 175.592 12.087C176.152 12.407 176.592 12.847 176.912 13.407C177.252 13.947 177.422 14.557 177.422 15.237V20.307C177.422 20.967 177.252 21.577 176.912 22.137C176.592 22.677 176.152 23.117 175.592 23.457C175.052 23.777 174.452 23.937 173.792 23.937H159.242C158.922 23.937 158.642 24.057 158.402 24.297C158.182 24.517 158.072 24.787 158.072 25.107V29.577C158.072 29.897 158.182 30.177 158.402 30.417C158.642 30.637 158.922 30.747 159.242 30.747H177.422V33.207H155.612ZM180.425 18.027V15.567H182.885V18.027H180.425ZM180.425 33.207V30.747H182.885V33.207H180.425ZM190.561 33.207C189.881 33.207 189.261 33.047 188.701 32.727C188.161 32.387 187.731 31.947 187.411 31.407C187.091 30.847 186.931 30.237 186.931 29.577V15.267C186.931 14.587 187.091 13.977 187.411 13.437C187.731 12.877 188.161 12.437 188.701 12.117C189.261 11.777 189.881 11.607 190.561 11.607H205.111C205.771 11.607 206.371 11.777 206.911 12.117C207.471 12.437 207.911 12.877 208.231 13.437C208.571 13.977 208.741 14.587 208.741 15.267V29.577C208.741 30.237 208.571 30.847 208.231 31.407C207.911 31.947 207.471 32.387 206.911 32.727C206.371 33.047 205.771 33.207 205.111 33.207H190.561ZM189.691 30.747H205.111C205.431 30.747 205.701 30.637 205.921 30.417C206.161 30.177 206.281 29.897 206.281 29.577V17.067L189.691 30.747ZM189.391 27.777L205.951 14.097H190.561C190.241 14.097 189.961 14.217 189.721 14.457C189.501 14.677 189.391 14.947 189.391 15.267V27.777ZM215.58 33.207C214.9 33.207 214.28 33.047 213.72 32.727C213.18 32.387 212.75 31.947 212.43 31.407C212.11 30.847 211.95 30.237 211.95 29.577V15.267C211.95 14.587 212.11 13.977 212.43 13.437C212.75 12.877 213.18 12.437 213.72 12.117C214.28 11.777 214.9 11.607 215.58 11.607H230.13C230.79 11.607 231.39 11.777 231.93 12.117C232.49 12.437 232.93 12.877 233.25 13.437C233.59 13.977 233.76 14.587 233.76 15.267V29.577C233.76 30.237 233.59 30.847 233.25 31.407C232.93 31.947 232.49 32.387 231.93 32.727C231.39 33.047 230.79 33.207 230.13 33.207H215.58ZM214.71 30.747H230.13C230.45 30.747 230.72 30.637 230.94 30.417C231.18 30.177 231.3 29.897 231.3 29.577V17.067L214.71 30.747ZM214.41 27.777L230.97 14.097H215.58C215.26 14.097 214.98 14.217 214.74 14.457C214.52 14.677 214.41 14.947 214.41 15.267V27.777ZM236.88 18.027V15.567H239.34V18.027H236.88ZM236.88 33.207V30.747H239.34V33.207H236.88ZM247.016 33.207C246.336 33.207 245.716 33.047 245.156 32.727C244.616 32.387 244.186 31.947 243.866 31.407C243.546 30.847 243.386 30.237 243.386 29.577V15.267C243.386 14.587 243.546 13.977 243.866 13.437C244.186 12.877 244.616 12.437 245.156 12.117C245.716 11.777 246.336 11.607 247.016 11.607H261.566C262.226 11.607 262.826 11.777 263.366 12.117C263.926 12.437 264.366 12.877 264.686 13.437C265.026 13.977 265.196 14.587 265.196 15.267V29.577C265.196 30.237 265.026 30.847 264.686 31.407C264.366 31.947 263.926 32.387 263.366 32.727C262.826 33.047 262.226 33.207 261.566 33.207H247.016ZM246.146 30.747H261.566C261.886 30.747 262.156 30.637 262.376 30.417C262.616 30.177 262.736 29.897 262.736 29.577V17.067L246.146 30.747ZM245.846 27.777L262.406 14.097H247.016C246.696 14.097 246.416 14.217 246.176 14.457C245.956 14.677 245.846 14.947 245.846 15.267V27.777ZM272.035 33.207C271.355 33.207 270.735 33.047 270.175 32.727C269.635 32.387 269.205 31.947 268.885 31.407C268.565 30.847 268.405 30.237 268.405 29.577V15.267C268.405 14.587 268.565 13.977 268.885 13.437C269.205 12.877 269.635 12.437 270.175 12.117C270.735 11.777 271.355 11.607 272.035 11.607H286.585C287.245 11.607 287.845 11.777 288.385 12.117C288.945 12.437 289.385 12.877 289.705 13.437C290.045 13.977 290.215 14.587 290.215 15.267V29.577C290.215 30.237 290.045 30.847 289.705 31.407C289.385 31.947 288.945 32.387 288.385 32.727C287.845 33.047 287.245 33.207 286.585 33.207H272.035ZM271.165 30.747H286.585C286.905 30.747 287.175 30.637 287.395 30.417C287.635 30.177 287.755 29.897 287.755 29.577V17.067L271.165 30.747ZM270.865 27.777L287.425 14.097H272.035C271.715 14.097 271.435 14.217 271.195 14.457C270.975 14.677 270.865 14.947 270.865 15.267V27.777Z" fill="#66A5B6"/>
</svg>
